<svg width="31" height="32" viewBox="0 0 31 32" fill="none" xmlns="http://www.w3.org/2000/svg">
<g clip-path="url(#clip0_696_91)">
<path d="M28.7053 0H2.28867C1.02324 0 0 1.03125 0 2.30625V29.6875C0 30.9625 1.02324 32 2.28867 32H28.7053C29.9707 32 31 30.9625 31 29.6938V2.30625C31 1.03125 29.9707 0 28.7053 0ZM9.19707 27.2687H4.59551V11.9937H9.19707V27.2687ZM6.89629 9.9125C5.41895 9.9125 4.22617 8.68125 4.22617 7.1625C4.22617 5.64375 5.41895 4.4125 6.89629 4.4125C8.36758 4.4125 9.56035 5.64375 9.56035 7.1625C9.56035 8.675 8.36758 9.9125 6.89629 9.9125ZM26.4166 27.2687H21.8211V19.8438C21.8211 18.075 21.7908 15.7937 19.4295 15.7937C17.0379 15.7937 16.6746 17.725 16.6746 19.7188V27.2687H12.0852V11.9937H16.493V14.0813H16.5535C17.165 12.8813 18.6666 11.6125 20.9008 11.6125C25.5568 11.6125 26.4166 14.775 26.4166 18.8875V27.2687Z" fill="#18553C"/>
</g>
<defs>
<clipPath id="clip0_696_91">
<rect width="31" height="32" fill="white"/>
</clipPath>
</defs>
</svg>
