<svg width="210" height="223" viewBox="0 0 210 223" fill="none" xmlns="http://www.w3.org/2000/svg">
<path d="M98.3347 1.65522L7.19522 50.8705C2.78884 53.2982 0 57.9328 0 62.9537L0.111554 159.95C0.111554 164.971 2.84462 169.55 7.30677 171.923L98.3904 221.303C102.518 223.566 107.538 223.566 111.665 221.303L202.805 172.088C207.267 169.66 210 165.081 210 160.06V62.8985C210 57.8777 207.211 53.2982 202.805 50.8705L111.61 1.65522C107.482 -0.551741 102.462 -0.551741 98.3347 1.65522ZM157.458 139.866L104.972 168.226V106.652L52.4861 83.1474L104.972 55.6707L157.458 83.1474V139.866Z" fill="white"/>
</svg>
