<svg width="158" height="227" viewBox="0 0 158 227" fill="none" xmlns="http://www.w3.org/2000/svg">
<path d="M52.4743 56.6102L0 28.3154V84.9253L52.4743 113.24V56.6102Z" fill="#F7F8F8"/>
<path d="M52.4741 0V56.6099L157.443 113.24V56.6099L52.4741 0Z" fill="#F7F8F8"/>
<path d="M52.4741 81.2966C52.7218 70.7574 62.5439 63.4187 72.4899 67.4142C72.4899 67.4142 53.6297 35.389 52.4741 33.167C51.5249 43.2373 40.9599 49.5567 31.3647 45.2351C33.0981 48.2725 52.4741 81.317 52.4741 81.317V81.2966Z" fill="#F7F8F8"/>
<path d="M52.4743 226.46V169.85L0 141.535V198.165L52.4743 226.46Z" fill="#F7F8F8"/>
<path d="M104.969 141.535L52.4741 113.24V169.85L104.969 198.165V141.535Z" fill="#F7F8F8"/>
<path d="M52.4741 194.537C52.7218 183.997 62.5439 176.659 72.4899 180.654C72.4899 180.654 53.6297 148.629 52.4741 146.407C51.5249 156.477 40.9599 162.797 31.3647 158.475C33.0981 161.512 52.4741 194.557 52.4741 194.557V194.537Z" fill="#F7F8F8"/>
</svg>
