<svg width="88" height="20" viewBox="0 0 88 20" fill="none" xmlns="http://www.w3.org/2000/svg">
<path d="M5.08372 19.527L0.251831 6.20593H4.00997L6.79424 15.166L9.56602 6.20593H13.3242L8.51724 19.527H5.08372Z" fill="white"/>
<path d="M14.6102 19.527V6.20593H18.3433V19.527H14.6102ZM14.5353 0.817356H18.5056V4.4891H14.5353V0.817356Z" fill="white"/>
<path d="M22.2138 19.527V9.31376H20.0663V6.20593H22.2138V5.15328C22.2138 3.63278 22.6716 2.4757 23.5872 1.68203C24.5112 0.880014 25.7139 0.479004 27.1956 0.479004C27.8282 0.479004 28.3983 0.541662 28.9061 0.666977V3.84999C28.5149 3.74139 28.1153 3.68708 27.7075 3.68708C27.208 3.68708 26.7835 3.85835 26.4339 4.20088C26.0927 4.53505 25.922 4.99872 25.922 5.59188V6.20593H28.9061V9.31376H25.922V19.527H22.2138Z" fill="white"/>
<path d="M30.3169 19.527V6.20593H34.0501V19.527H30.3169ZM30.242 0.817356H34.2124V4.4891H30.242V0.817356Z" fill="white"/>
<path d="M41.5789 19.527V0.817356H45.312V19.527H41.5789Z" fill="white"/>
<path d="M51.9668 19.7275C50.6101 19.7275 49.4905 19.3599 48.6082 18.6247C47.7259 17.8895 47.2847 16.9664 47.2847 15.8552C47.2847 14.6689 47.6843 13.7207 48.4834 13.0106C49.2824 12.2921 50.4436 11.8368 51.9668 11.6446L54.4265 11.3188C54.7261 11.2687 54.955 11.1601 55.1132 10.993C55.2796 10.8175 55.3629 10.6003 55.3629 10.3413C55.3629 9.93198 55.1631 9.5811 54.7636 9.28869C54.3723 8.99629 53.848 8.85009 53.1904 8.85009C52.5578 8.85009 52.0209 9.02135 51.5798 9.36388C51.1469 9.70641 50.918 10.1701 50.8931 10.7549H47.2847C47.4512 9.29287 48.0547 8.13579 49.0951 7.28364C50.1439 6.4315 51.509 6.00542 53.1904 6.00542C55.0216 6.00542 56.4699 6.49415 57.5353 7.47162C58.6008 8.44908 59.1335 9.7816 59.1335 11.4692V15.4417C59.1335 16.1602 59.3874 16.5194 59.8951 16.5194L60.3571 16.4693V19.527C59.7578 19.6439 59.1501 19.7024 58.5342 19.7024C57.835 19.7024 57.2565 19.552 56.7987 19.2513C56.3409 18.9505 56.0621 18.5286 55.9622 17.9856C55.6958 18.5286 55.2047 18.9547 54.4889 19.2638C53.7814 19.5729 52.9407 19.7275 51.9668 19.7275ZM52.6285 16.958C53.4942 16.958 54.1892 16.6614 54.7136 16.0683C55.238 15.4751 55.5002 14.7525 55.5002 13.9003V13.6246L52.6036 14.1133C51.5132 14.2888 50.968 14.8026 50.968 15.6547C50.968 16.0223 51.1178 16.3314 51.4174 16.5821C51.7171 16.8327 52.1208 16.958 52.6285 16.958Z" fill="white"/>
<path d="M69.1219 19.7275C68.3395 19.7275 67.6278 19.5855 66.9869 19.3014C66.346 19.009 65.8632 18.6289 65.5386 18.161V19.527H61.8054V0.817356H65.5386V7.52174C65.9131 7.0539 66.4167 6.68631 67.0493 6.41897C67.6819 6.14327 68.3894 6.00542 69.1718 6.00542C71.078 6.00542 72.6012 6.62783 73.7415 7.87263C74.8902 9.11743 75.4645 10.78 75.4645 12.8602C75.4645 14.9488 74.8902 16.6155 73.7415 17.8603C72.6012 19.1051 71.0613 19.7275 69.1219 19.7275ZM66.2128 15.5169C66.7954 16.1852 67.5612 16.5194 68.5101 16.5194C69.459 16.5194 70.2206 16.1852 70.795 15.5169C71.3693 14.8402 71.6565 13.9546 71.6565 12.8602C71.6565 11.7658 71.3693 10.8844 70.795 10.216C70.2206 9.54768 69.459 9.2135 68.5101 9.2135C67.5612 9.2135 66.7954 9.54768 66.2128 10.216C65.6301 10.8844 65.3388 11.7658 65.3388 12.8602C65.3388 13.963 65.6301 14.8485 66.2128 15.5169Z" fill="white"/>
<path d="M82.5064 19.7275C80.7834 19.7275 79.385 19.2805 78.3112 18.3866C77.2375 17.4927 76.6673 16.3064 76.6007 14.8276H79.9968C80.0384 15.3206 80.2964 15.7675 80.7709 16.1685C81.2453 16.5612 81.8238 16.7575 82.5064 16.7575C83.0807 16.7575 83.5468 16.6489 83.9047 16.4317C84.271 16.2145 84.4541 15.9221 84.4541 15.5545C84.4541 14.978 84.0254 14.5979 83.1681 14.4141L81.2328 14.0382C80.8 13.9463 80.4005 13.8377 80.0342 13.7123C79.6763 13.587 79.3142 13.4158 78.948 13.1985C78.5901 12.973 78.2863 12.714 78.0366 12.4216C77.7952 12.1292 77.5954 11.7658 77.4372 11.3313C77.2874 10.8886 77.2125 10.3956 77.2125 9.85261C77.2125 8.78325 77.6661 7.8768 78.5734 7.13327C79.4807 6.38137 80.6876 6.00542 82.1942 6.00542C83.6758 6.00542 84.9286 6.38973 85.9524 7.15833C86.9845 7.92693 87.5838 8.97958 87.7503 10.3163H84.3417C84.2751 9.83173 84.0254 9.45996 83.5926 9.20097C83.1681 8.93363 82.702 8.79996 82.1942 8.79996C81.7447 8.79996 81.3743 8.89604 81.083 9.08819C80.8 9.27199 80.6585 9.52679 80.6585 9.85261C80.6585 10.1367 80.7792 10.3748 81.0206 10.5669C81.262 10.7507 81.5866 10.8802 81.9945 10.9554L83.9422 11.3439C84.4166 11.4358 84.837 11.5402 85.2032 11.6572C85.5778 11.7741 85.944 11.9412 86.302 12.1584C86.6682 12.3673 86.9678 12.6179 87.2009 12.9103C87.4423 13.1944 87.6337 13.5536 87.7752 13.988C87.9251 14.4225 88 14.9154 88 15.4668C88 16.6364 87.4839 17.6389 86.4518 18.4743C85.428 19.3098 84.1128 19.7275 82.5064 19.7275Z" fill="white"/>
</svg>
